<?xml version="1.0" encoding="utf-8"?>
<!-- Generator: Adobe Illustrator 23.0.2, SVG Export Plug-In . SVG Version: 6.00 Build 0)  -->
<svg version="1.1" id="圖層_1" xmlns="http://www.w3.org/2000/svg" xmlns:xlink="http://www.w3.org/1999/xlink" x="0px" y="0px"
	 viewBox="0 0 497.6 211.1" style="enable-background:new 0 0 497.6 211.1;" xml:space="preserve">
<style type="text/css">
	.st0{display:none;}
	.st1{display:inline;fill:none;stroke:#000000;stroke-miterlimit:10;}
	.st2{display:inline;}
	.st3{fill:none;stroke:#000000;stroke-width:10;stroke-linecap:round;stroke-linejoin:round;stroke-miterlimit:10;}
</style>
<g class="st0">
	<path class="st1" d="M166.3,138.3c-9.7,10.5-24.4,10.5-34.8,0.4c-8.5-8.1-14.9-16.7-20.5-25.6c-5.6-8.9-10.5-17.9-15.5-27.4
		c-0.8,0.2-1.2,1.2-1.4,2c-4.8,19.1-10.7,38-19.1,55.6c-1.6,2.2-2.8,4.4-5.6,5c-3.6,1-6.2-1.4-8.5-3.8l-2-2.2
		c-8.5-15.7-11.5-34.8-11.1-54c0.4-14.9,2.6-30,6.6-43.1c0.4-1.6,2.4-2.2,3.8-1.8c1.4,0.6,2.8,1.6,3.6,3.2c0.8,1,0.4,2-0.2,2.8
		l-0.8,1c-0.4,0.2-0.6,0.4-0.6,0.6c-3.2,11.5-5.2,24-5.6,36.4c-0.4,16.5,1.8,32.8,8.1,47.1c1,2.4,2.6,4.8,4.8,6.4
		c1.6-0.4,2.6-3.2,3.6-4.6c8.1-17.3,14.3-35.6,19.3-54.4c0.8-1.6,2.4-2.8,4.2-3.4c1.8-0.2,3.6,0.2,4.8,1.6c9.3,18.3,19.5,36,34,51.5
		c12.1,12.9,24.4,10.5,32.4-4c3.6-6.4,5-14.3,6.2-21.9c2.2-12.9,4.2-28.2,4.6-42.5c0.4-14.7-0.2-29.6-1.6-43.9
		c0.2-1.8,0.6-3.4,2.2-4.4c1.6,0,3,1,3.2,2.6c1.4,15.5,2.4,29.2,2.2,45.3c-0.2,18.3-3,41.1-6.4,55.8
		C175.2,124,171.4,132.7,166.3,138.3z"/>
	<path class="st1" d="M243.8,141.7c-5.4,4.2-11.5,7.2-17.7,7.9c-6.6,0.6-13.1-1.6-17.3-6c-2.4-2.6-4-4.8-5-7c-1-1.8-1.6-3.8-2.2-5.8
		c-1.6,1.2-3.8,2.4-5.2,2.8c-2.2,0.6-4,0.6-6.6-0.6c-0.8-0.8-1.6-2.6-0.6-4.2c1.2-0.6,2.4-1,3.6-1.2c1.2-0.4,2.2-0.6,3-1
		c1.4-0.6,3.4-2,5-2.8c-0.6-9.1-0.6-18.7,1.4-27.8c1.4-7,4.6-14.1,9.5-19.5c4.4-3.6,12.9-6,18.3-4.2c7,2.4,12.3,9.9,15.1,16.3
		c0.8,4.2-1,7.6-3.2,10.3c-1.8,2-4,4.2-6.2,6.2l-3,2.8c-0.8,0.8-1.8,1.8-2.4,2.6c-3.2,3-7,6-10.9,8.9c-3.8,2.8-7.7,5.4-11.1,7.7
		c1,5.6,2.8,11.3,8.1,14.3c4.8,2.8,9.9,2.4,14.5,0.6c4.4-1.6,8.7-4.2,11.9-7c6-5.2,11.1-11.1,13.5-17.9c1-1,2.8,1,2.8,1.8
		c-0.2,3.8-2.6,8.7-4.6,11.9C251.5,134.7,247.9,138.5,243.8,141.7z M216.1,81.9c-3.2,4.2-5.2,9.1-6.6,14.5c-2,7-2.2,14.7-1.8,22.3
		c3.8-2.6,7.9-5.4,11.9-8.5c4.4-3.2,8.5-6.8,11.9-10.5c2.6-2.6,6.4-5.4,7-9.5c-1.8-4-4.6-8.3-8.5-10.9
		C225.9,78.1,219.3,78.9,216.1,81.9z"/>
	<path class="st1" d="M314.5,146.7c-0.4-1.8,0-4,0.2-5.8c0-0.6,0-1.2-0.2-1.8c1.2-17.5,0.8-36.4-1-54c-0.2-1.2-0.4-2.2-0.8-3.2
		c-0.4-1-0.8-2-1.6-2.6c-1.8-1.8-4-1.6-6.2-0.4c-2.6,1.6-4.8,5-6.8,7.4c-7.4,9.5-12.5,20.1-16.3,31.4c-3.2,9.1-5.2,18.7-6.6,28.4
		c-0.8,2.2-4.8,2.6-5.6-0.2c0-3.6-0.2-10.7-0.2-14.5c-0.4-13.3-2.2-30.8-2.8-41.1c-0.4-5.6-0.8-11.5-3-16.7c-0.2-1,0.2-3.2,2-3.6
		c2.6,0.4,4,2.4,5,4.6l1,2c1.8,14.1,2.6,28.4,4,42.5c3-8.3,6.4-16.7,10.7-24.4c4.2-7.4,9.1-14.7,15.7-20.9c2-1.2,4.2-2.8,7.2-2.4
		c2.8,0.2,5,1.4,7.2,3.2c2.6,4.4,4,9.3,4.8,14.5c1.2,8.5,0.6,17.5,0.8,26c0.2,8.1-0.2,16.3-0.8,24.4c2.8-2,5.2-4.6,7.7-7.2l7.4-9.7
		c1-1,2.4,0.8,2.2,1.6c-4.2,9.3-10.1,17.7-18.3,24.8C317.9,150.8,315.1,148.6,314.5,146.7z"/>
	<path class="st1" d="M394.2,118c-1.2-7.2-1-14.9-1.8-22.5c-5.2,15.5-11.5,30.6-20.9,44.3c-3.6,5.2-9.1,10.1-15.5,9.5
		c-4.4-0.4-8.5-3.2-10.9-7.2c-3-8.9-3.4-17.7-2-26.4c1.6-11.1,6.2-21.7,11.9-30.6c4.2-6.8,11.1-13.5,19.5-12.9
		c4.8,0.2,9.7,2.8,12.7,6.4c1.6,2,2.4,4.2,3,6.6c1.4-3.8,2.2-8.3,2.4-12.7c0.4-6.2,0.4-12.7,1.2-18.9c1-6.2,1.6-12.5,2.4-18.5
		c0.8-6,1.8-12.1,3.6-17.9c2.2-3.4,5.8,0,5.6,2c-2.2,17.1-5.6,33.6-6.2,51.1c-0.6,18.5-0.8,37.2,3,55.2c0.4,2.2,1.6,4,2.4,6
		c0.2,0.6,0.6,1.4,0.8,2.4c-2.2,1.2-4.4,0-5.2-1C396.6,128.4,395.2,123.4,394.2,118z M382.5,83.9c-1.2-2.4-3.6-4-6.2-4.8
		c-2.6-1-5.6-0.4-7.9,1c-3.8,3.4-6.8,7-9.3,10.9c-5.2,8.9-7.9,18.7-9.9,29c0,2.6-0.2,5.4-0.2,8.3c0,2.8,0.4,5.6,1.2,7.9
		c0.8,2.6,2.2,4.6,4.6,5.8c3.8,1.2,7-1,9.9-4.4c9.5-11.7,15.3-25.4,20.3-39.3c-1-0.4-1.6-2-1.6-2.8
		C383.6,91.8,384.2,87.4,382.5,83.9z"/>
	<path class="st1" d="M423.6,196.7c-7.2-0.2-15.3-2.2-20.5-7.7c-1.8-2-3.2-4.4-4.6-8.7l3.4,2.2c2,1.4,3.8,3.2,6,4.4
		c4.6,2.6,10.5,3.6,15.7,3.8c10.9,0.2,19.9-4.4,28.4-11.3c4-3.2,8.1-8.3,10.5-12.3c2.6-4.8,4.2-10.3,3.4-16.3
		c-2.8-22.5-4.4-45.9-4.8-69.5c-9.7,15.9-20.5,31-32.4,45.9c-1.8,2.4-4.8,3.2-7.4,2.6c-2.4-0.4-3.6-2.4-4.6-4
		c-0.8-7.6-0.8-15.1-0.4-22.5c0.4-7.4,1.2-14.9,1.4-22.3c0.4-1.2,0-2-0.6-3.2l-1-1.6c-0.4-0.4-0.6-1-1-1.6c-1-2.8,1.8-4.4,4-4
		c2,0.8,3.4,2.4,4.6,4.4c1,4.2,1,7.9,0.8,11.7c-0.2,6.4-1.6,12.7-1.4,19.5c0,2.8-0.2,6-0.2,8.9c0,3,0,5.8,0.4,8.7c0,0.2,1,0.4,1.4,0
		c14.5-16.1,26.2-33.6,37-51.5c1.2-1,2.6-1.8,4.6-0.8c1.2,1,1.8,2.4,2,3.8c-1.2,25.8,1.2,52.9,4.6,78.3c0,5.6-2,11.1-4.6,15.9
		C459.4,185.6,441.9,197.3,423.6,196.7z"/>
	<path class="st1" d="M554.3,143.9c-5.4-4.4-8.3-10.1-9.5-16.5c-1.4-8.1-0.2-17.1,2.2-24.8c2.2-7.4,6-15.9,11.7-22.5
		c4-4.6,9.1-8.3,15.5-9.5c6-0.4,12.1,0.8,15.5,6c2.2,3.4,2.6,9.1,0.6,12.7c-0.8,1-1.6,2-2.6,3c-0.8,0.8-2,1.6-4,1.6
		c0-1.2,0.2-1.8,0.4-2.4l1-1.6c0.6-1,1-1.8,1-2.8c0.4-2.8-0.2-5.6-2-7.7c-2.4-2.8-6.4-3.4-9.9-2.6c-4.8,1.8-8.5,4.8-11.5,8.7
		c-7,8.7-9.7,21.1-11.5,32.4c-0.2,6,0.4,11.5,3,16.1c3.2,5.4,8.7,8.1,14.7,8.7c5.8,0.4,9.1-0.8,13.5-3.6c4-2.6,7-6.2,9.3-9.7
		c2.6-4,4.4-8.1,6-12.1c0.6-1.2,3-0.6,2.8,1c-1,7.4-5.8,16.5-10.5,21.3C580.4,149.8,565.5,152.8,554.3,143.9z"/>
	<path class="st1" d="M664.4,144.5c-3.2-1-5-4.4-5.6-7c-3.4-17.5-4-36.2-6.2-54.2c-0.6-5.4-6.4-6.6-9.5-1.6
		c-5.2,9.1-10.5,21.3-13.7,32.4c-3.2,10.5-7.4,20.9-9.1,32c-0.8,1.4-3,3.2-5.2,1.8c-0.6-0.8-1.2-2-1.6-3.2l-1-3.8
		c-3.8-14.7-4.4-29.8-3.8-44.7c0.6-17.3,3.6-34.6,7.9-50.7c1.8-6.8,5.8-17.3,9.5-23.6c2-3.6,5.2-6,9.7-7.6c2.6,0,5,0.6,7.2,2.4
		c1.4,1.4,2.8,3.2,1.4,5.4c-2-0.6-4-1.4-6-1.6c-1.8-0.2-4,0.6-4.6,1.4c-4.4,6.8-7.4,14.3-9.9,21.9c-2.8,8.9-4.6,17.9-6,27.2
		c-1.8,11.7-2.8,24.6-2.6,37.2c0,3.4,0.8,18.3,2.2,24.6c2-10.5,5.4-19.7,9.1-29.6c2.8-7.2,6.2-15.3,9.9-21.9c0.8-1.6,1.4-2.8,2.2-4
		c0.6-1.2,1.4-2.4,2.4-3.2c1.8-2,4-3,7.6-3c3.6,0,7.4,2,9.5,6c1.6,3,1.8,7,2.2,10.5c1.4,15.1,2.4,32.6,5.6,48.5c0.4,0.8,1,1,1.2,0.8
		c3.8-4.2,6.4-8.5,9.1-13.1c2.4-4.4,4.8-9.1,7.4-13.9c0.6-1,1.6-0.6,2.2-0.2c0.6,0.4,1,1.2,1,2.4c-3.6,9.9-7.6,20.1-13.7,27.8
		C671.4,141.9,668,145.7,664.4,144.5z"/>
	<path class="st1" d="M708.7,149.6c-6.2-1.2-12.5-6.4-14.7-12.5c-3.6-10.3-3.4-20.5-0.6-30.2c3-9.9,8.7-19.1,16.5-26.6
		c4.6-4.4,9.9-8.5,15.9-9.9c1.2-0.2,3.2,0.4,3.8,1.8c2.6,0.4,5,1.6,7,3c3.6,2.6,6.4,6.4,8.1,10.1c4.2,9.1,5.2,19.1,3.4,29
		c-1.8,9.5-6.2,18.5-12.7,25.6C728.4,147.3,719.3,151.4,708.7,149.6z M725,77.5c-1,0.8-2,1.4-3,2l-2.8,1.8
		c-9.5,6-15.1,15.5-18.5,25.6c-2.6,8.1-3,17.1-1,26.2c1.2,4.8,5.8,8.5,10.5,9.5c6.6,1.6,13.1-0.6,17.7-4.6c7-6,11.3-13.9,13.1-22.5
		c1.6-6.8,1.6-14.3,0.4-21.3c-1-6.2-5.2-11.5-10.7-15.5C728.6,76.5,726.6,76.5,725,77.5z"/>
	<path class="st1" d="M822.4,143.3c-4.2-1-8.7-5.6-9.9-8.5c-3.8-9.9-4.4-24-4-36.4c-3.8,11.5-7.9,23.2-14.9,33
		c-4,5.6-8.9,10.7-14.9,14.7c-4.2,2.8-10.9,2-14.7-1c-4-4.4-5.2-10.1-5-15.7c0.2-8.1,1-15.9,1.6-23.8c1-11.3,1.8-22.5,1-34.2
		c3.2-2.2,5.8,1,6.6,3c0.8,10.9,0,21.3-1,31.8c-0.8,9.1-1.6,18.1-1.2,27.2c0.6,3,2,6.4,5.4,7.2c3.6,0.4,6.8-1.2,9.7-3.8
		c1.8-1.6,3.4-3.6,5-5.6c1.4-2,2.8-4.2,4.2-6c4.2-5.8,7-12.5,9.7-19.3c3.4-8.7,5.8-17.9,8.7-27c0.2-0.2,0.4-0.6,0.4-0.8
		c0.6-1,1.2-2.2,2.6-2.2c1.8-0.4,3.2,1.2,3.4,2.4c-0.4,8.9-1,19.3-0.8,28.8c0,9.5,1,18.1,2.8,23.4c1.6,4.2,3.6,7.4,7.2,10.1
		c0.8,0.6,0.2,1.6,0,2C824,142.9,823.2,143.3,822.4,143.3z"/>
</g>
<g class="st0">
	<path class="st2" d="M163.9,363.1c-8.6,9.3-21.6,9.3-30.9,0.4c-7.5-7.2-13.2-14.8-18.2-22.7c-5-7.9-9.3-15.9-13.8-24.3
		c-0.7,0.2-1.1,1.1-1.3,1.8c-4.3,17-9.5,33.8-17,49.4c-1.4,2-2.5,3.9-5,4.5c-3.2,0.9-5.5-1.3-7.5-3.4l-1.8-2
		c-7.5-14-10.2-30.9-9.8-47.9c0.4-13.2,2.3-26.7,5.9-38.3c0.4-1.4,2.1-2,3.4-1.6c1.3,0.5,2.5,1.4,3.2,2.9c0.7,0.9,0.4,1.8-0.2,2.5
		l-0.7,0.9c-0.4,0.2-0.5,0.4-0.5,0.5c-2.9,10.2-4.7,21.3-5,32.4c-0.4,14.7,1.6,29.2,7.2,41.9c0.9,2.1,2.3,4.3,4.3,5.7
		c1.4-0.4,2.3-2.9,3.2-4.1c7.2-15.4,12.7-31.7,17.2-48.3c0.7-1.4,2.1-2.5,3.8-3c1.6-0.2,3.2,0.2,4.3,1.4c8.2,16.3,17.4,32,30.2,45.8
		c10.7,11.4,21.6,9.3,28.8-3.6c3.2-5.7,4.5-12.7,5.5-19.5c2-11.4,3.8-25,4.1-37.7c0.4-13.1-0.2-26.3-1.4-39c0.2-1.6,0.5-3,2-3.9
		c1.4,0,2.7,0.9,2.9,2.3c1.3,13.8,2.1,25.9,2,40.3c-0.2,16.3-2.7,36.5-5.7,49.6C171.8,350.4,168.4,358.1,163.9,363.1z"/>
	<path class="st2" d="M232.8,366.1c-4.8,3.8-10.2,6.4-15.7,7c-5.9,0.5-11.6-1.4-15.4-5.4c-2.1-2.3-3.6-4.3-4.5-6.3
		c-0.9-1.6-1.4-3.4-2-5.2c-1.4,1.1-3.4,2.1-4.7,2.5c-2,0.5-3.6,0.5-5.9-0.5c-0.7-0.7-1.4-2.3-0.5-3.8c1.1-0.5,2.1-0.9,3.2-1.1
		c1.1-0.4,2-0.5,2.7-0.9c1.3-0.5,3-1.8,4.5-2.5c-0.5-8.1-0.5-16.6,1.3-24.7c1.3-6.3,4.1-12.5,8.4-17.4c3.9-3.2,11.4-5.4,16.3-3.8
		c6.3,2.1,10.9,8.8,13.4,14.5c0.7,3.8-0.9,6.8-2.9,9.1c-1.6,1.8-3.6,3.8-5.5,5.5l-2.7,2.5c-0.7,0.7-1.6,1.6-2.1,2.3
		c-2.9,2.7-6.3,5.4-9.7,7.9c-3.4,2.5-6.8,4.8-9.8,6.8c0.9,5,2.5,10,7.2,12.7c4.3,2.5,8.8,2.1,12.9,0.5c3.9-1.4,7.7-3.8,10.6-6.3
		c5.4-4.7,9.8-9.8,12-15.9c0.9-0.9,2.5,0.9,2.5,1.6c-0.2,3.4-2.3,7.7-4.1,10.6C239.6,359.9,236.4,363.3,232.8,366.1z M208.1,313
		c-2.9,3.8-4.7,8.1-5.9,12.9c-1.8,6.3-2,13.1-1.6,19.9c3.4-2.3,7-4.8,10.6-7.5c3.9-2.9,7.5-6.1,10.6-9.3c2.3-2.3,5.7-4.8,6.3-8.4
		c-1.6-3.6-4.1-7.3-7.5-9.7C216.9,309.6,211,310.3,208.1,313z"/>
	<path class="st2" d="M295.6,370.6c-0.4-1.6,0-3.6,0.2-5.2c0-0.5,0-1.1-0.2-1.6c1.1-15.6,0.7-32.4-0.9-47.9c-0.2-1.1-0.4-2-0.7-2.9
		c-0.4-0.9-0.7-1.8-1.4-2.3c-1.6-1.6-3.6-1.4-5.5-0.4c-2.3,1.4-4.3,4.5-6.1,6.6c-6.6,8.4-11.1,17.9-14.5,27.9
		c-2.9,8.1-4.7,16.6-5.9,25.2c-0.7,2-4.3,2.3-5-0.2c0-3.2-0.2-9.5-0.2-12.9c-0.4-11.8-2-27.4-2.5-36.5c-0.4-5-0.7-10.2-2.7-14.8
		c-0.2-0.9,0.2-2.9,1.8-3.2c2.3,0.4,3.6,2.1,4.5,4.1l0.9,1.8c1.6,12.5,2.3,25.2,3.6,37.7c2.7-7.3,5.7-14.8,9.5-21.6
		c3.8-6.6,8.1-13.1,14-18.6c1.8-1.1,3.8-2.5,6.4-2.1c2.5,0.2,4.5,1.3,6.4,2.9c2.3,3.9,3.6,8.2,4.3,12.9c1.1,7.5,0.5,15.6,0.7,23.1
		c0.2,7.2-0.2,14.5-0.7,21.6c2.5-1.8,4.7-4.1,6.8-6.4l6.6-8.6c0.9-0.9,2.1,0.7,2,1.4c-3.8,8.2-8.9,15.7-16.3,22
		C298.6,374.2,296.1,372.2,295.6,370.6z"/>
	<path class="st2" d="M366.4,345c-1.1-6.4-0.9-13.2-1.6-20c-4.7,13.8-10.2,27.2-18.6,39.4c-3.2,4.7-8.1,8.9-13.8,8.4
		c-3.9-0.4-7.5-2.9-9.7-6.4c-2.7-7.9-3-15.7-1.8-23.4c1.4-9.8,5.5-19.3,10.6-27.2c3.8-6.1,9.8-12,17.4-11.4
		c4.3,0.2,8.6,2.5,11.3,5.7c1.4,1.8,2.1,3.8,2.7,5.9c1.3-3.4,2-7.3,2.1-11.3c0.4-5.5,0.4-11.3,1.1-16.8c0.9-5.5,1.4-11.1,2.1-16.5
		c0.7-5.4,1.6-10.7,3.2-15.9c2-3,5.2,0,5,1.8c-2,15.2-5,29.9-5.5,45.4c-0.5,16.5-0.7,33.1,2.7,49c0.4,2,1.4,3.6,2.1,5.4
		c0.2,0.5,0.5,1.3,0.7,2.1c-2,1.1-3.9,0-4.7-0.9C368.6,354.3,367.3,349.9,366.4,345z M356,314.8c-1.1-2.1-3.2-3.6-5.5-4.3
		c-2.3-0.9-5-0.4-7,0.9c-3.4,3-6.1,6.3-8.2,9.7c-4.7,7.9-7,16.6-8.8,25.8c0,2.3-0.2,4.8-0.2,7.3s0.4,5,1.1,7c0.7,2.3,2,4.1,4.1,5.2
		c3.4,1.1,6.3-0.9,8.8-3.9c8.4-10.4,13.6-22.5,18.1-34.9c-0.9-0.4-1.4-1.8-1.4-2.5C356.9,321.8,357.5,317.8,356,314.8z"/>
	<path class="st2" d="M392.5,415c-6.4-0.2-13.6-2-18.2-6.8c-1.6-1.8-2.9-3.9-4.1-7.7l3,2c1.8,1.3,3.4,2.9,5.4,3.9
		c4.1,2.3,9.3,3.2,14,3.4c9.7,0.2,17.7-3.9,25.2-10c3.6-2.9,7.2-7.3,9.3-10.9c2.3-4.3,3.8-9.1,3-14.5c-2.5-20-3.9-40.8-4.3-61.7
		c-8.6,14.1-18.2,27.5-28.8,40.8c-1.6,2.1-4.3,2.9-6.6,2.3c-2.1-0.4-3.2-2.1-4.1-3.6c-0.7-6.8-0.7-13.4-0.4-20
		c0.4-6.6,1.1-13.2,1.3-19.9c0.4-1.1,0-1.8-0.5-2.9l-0.9-1.4c-0.4-0.4-0.5-0.9-0.9-1.4c-0.9-2.5,1.6-3.9,3.6-3.6
		c1.8,0.7,3,2.1,4.1,3.9c0.9,3.8,0.9,7,0.7,10.4c-0.2,5.7-1.4,11.3-1.3,17.4c0,2.5-0.2,5.4-0.2,7.9c0,2.7,0,5.2,0.4,7.7
		c0,0.2,0.9,0.4,1.3,0c12.9-14.3,23.3-29.9,32.9-45.8c1.1-0.9,2.3-1.6,4.1-0.7c1.1,0.9,1.6,2.1,1.8,3.4c-1.1,22.9,1.1,47,4.1,69.6
		c0,5-1.8,9.8-4.1,14.1C424.4,405.1,408.8,415.5,392.5,415z"/>
	<path class="st2" d="M508.6,368.1c-4.8-3.9-7.3-8.9-8.4-14.7c-1.3-7.2-0.2-15.2,2-22c2-6.6,5.4-14.1,10.4-20
		c3.6-4.1,8-7.3,13.8-8.4c5.4-0.4,10.7,0.7,13.8,5.4c2,3,2.3,8.1,0.5,11.3c-0.7,0.9-1.4,1.8-2.3,2.7c-0.7,0.7-1.8,1.4-3.6,1.4
		c0-1.1,0.2-1.6,0.4-2.1l0.9-1.4c0.5-0.9,0.9-1.6,0.9-2.5c0.4-2.5-0.2-5-1.8-6.8c-2.1-2.5-5.7-3-8.8-2.3c-4.3,1.6-7.5,4.3-10.2,7.7
		c-6.3,7.7-8.6,18.8-10.2,28.8c-0.2,5.4,0.4,10.2,2.7,14.3c2.9,4.8,7.7,7.2,13.1,7.7c5.2,0.4,8.1-0.7,12-3.2
		c3.6-2.3,6.3-5.5,8.2-8.6c2.3-3.6,3.9-7.2,5.4-10.7c0.5-1.1,2.7-0.5,2.5,0.9c-0.9,6.6-5.2,14.7-9.3,19
		C531.9,373.3,518.7,376,508.6,368.1z"/>
	<path class="st2" d="M606.5,368.6c-2.9-0.9-4.5-3.9-5-6.3c-3-15.6-3.6-32.2-5.5-48.1c-0.5-4.8-5.7-5.9-8.4-1.4
		c-4.7,8.1-9.3,19-12.2,28.8c-2.9,9.3-6.6,18.6-8,28.4c-0.7,1.3-2.7,2.9-4.7,1.6c-0.5-0.7-1.1-1.8-1.4-2.9l-0.9-3.4
		c-3.4-13.1-3.9-26.5-3.4-39.7c0.5-15.4,3.2-30.8,7-45.1c1.6-6.1,5.2-15.4,8.4-20.9c1.8-3.2,4.7-5.4,8.6-6.8c2.3,0,4.5,0.5,6.4,2.1
		c1.3,1.3,2.5,2.9,1.3,4.8c-1.8-0.5-3.6-1.3-5.4-1.4c-1.6-0.2-3.6,0.5-4.1,1.3c-3.9,6.1-6.6,12.7-8.8,19.5
		c-2.5,7.9-4.1,15.9-5.4,24.2c-1.6,10.4-2.5,21.8-2.3,33.1c0,3,0.7,16.3,2,21.8c1.8-9.3,4.8-17.5,8.1-26.3
		c2.5-6.4,5.5-13.6,8.8-19.5c0.7-1.4,1.3-2.5,2-3.6c0.5-1.1,1.3-2.1,2.1-2.9c1.6-1.8,3.6-2.7,6.8-2.7c3.2,0,6.6,1.8,8.4,5.4
		c1.4,2.7,1.6,6.3,2,9.3c1.3,13.4,2.1,29,5,43.1c0.4,0.7,0.9,0.9,1.1,0.7c3.4-3.8,5.7-7.5,8.1-11.6c2.1-3.9,4.3-8.1,6.6-12.3
		c0.5-0.9,1.4-0.5,2-0.2c0.5,0.4,0.9,1.1,0.9,2.1c-3.2,8.8-6.8,17.9-12.2,24.7C612.8,366.3,609.7,369.7,606.5,368.6z"/>
	<path class="st2" d="M645.9,373.1c-5.5-1.1-11.1-5.7-13.1-11.1c-3.2-9.1-3-18.2-0.5-26.8c2.7-8.8,7.7-17,14.7-23.6
		c4.1-3.9,8.8-7.5,14.1-8.8c1.1-0.2,2.9,0.4,3.4,1.6c2.3,0.4,4.5,1.4,6.3,2.7c3.2,2.3,5.7,5.7,7.2,8.9c3.8,8.1,4.7,17,3,25.8
		c-1.6,8.4-5.5,16.5-11.3,22.7C663.4,371.1,655.3,374.7,645.9,373.1z M660.3,309.1c-0.9,0.7-1.8,1.3-2.7,1.8l-2.5,1.6
		c-8.4,5.4-13.4,13.8-16.5,22.7c-2.3,7.2-2.7,15.2-0.9,23.3c1.1,4.3,5.2,7.5,9.3,8.4c5.9,1.4,11.6-0.5,15.7-4.1
		c6.3-5.4,10-12.3,11.6-20c1.4-6.1,1.4-12.7,0.4-19c-0.9-5.5-4.7-10.2-9.5-13.8C663.6,308.2,661.8,308.2,660.3,309.1z"/>
	<path class="st2" d="M746.9,367.6c-3.8-0.9-7.7-5-8.8-7.5c-3.4-8.8-3.9-21.3-3.6-32.4c-3.4,10.2-7,20.6-13.2,29.3
		c-3.6,5-7.9,9.5-13.2,13.1c-3.8,2.5-9.7,1.8-13.1-0.9c-3.6-3.9-4.7-8.9-4.5-14c0.2-7.2,0.9-14.1,1.4-21.1c0.9-10,1.6-20,0.9-30.4
		c2.9-2,5.2,0.9,5.9,2.7c0.7,9.7,0,19-0.9,28.3c-0.7,8.1-1.4,16.1-1.1,24.2c0.5,2.7,1.8,5.7,4.8,6.4c3.2,0.4,6.1-1.1,8.6-3.4
		c1.6-1.4,3-3.2,4.5-5c1.3-1.8,2.5-3.8,3.8-5.4c3.8-5.2,6.3-11.1,8.6-17.2c3-7.7,5.2-15.9,7.7-24c0.2-0.2,0.4-0.5,0.4-0.7
		c0.5-0.9,1.1-2,2.3-2c1.6-0.4,2.9,1.1,3,2.1c-0.4,7.9-0.9,17.2-0.7,25.6c0,8.4,0.9,16.1,2.5,20.8c1.4,3.8,3.2,6.6,6.4,8.9
		c0.7,0.5,0.2,1.4,0,1.8C748.4,367.2,747.6,367.6,746.9,367.6z"/>
</g>
<path class="st3" d="M57.4,48.7c0,0-6.3,23.8-6.6,30.1c-0.3,6.4-1.4,16.5,0,26.7c1.4,10.2,4.2,19.2,8.3,29.6c1.6,4.1,3.8,8.7,6.9,9
	c3.1,0.3,7.6-4.5,10.8-11.5c3.1-6.9,10.8-30.6,12.5-37.9s2.8-12.6,5.2-13.1c2.4-0.5,6.3,8.6,8,11c1.7,2.4,14.6,24,17.7,28.1
	s14.2,18.8,20.1,20.5c5.9,1.7,10.1,2.1,14.6,0.3c4.5-1.7,18.1-10.7,20.5-36.2s6.9-65.9,2.4-84.6"/>
<path class="st3" d="M193,129.8c0,0,21-10.5,30.8-19.2c9.7-8.7,16.9-15.6,17.9-18.8c0.9-3.1-7.5-17.3-15.1-16.9S212.4,78,209,83.9
	c-4.4,7.7-9.2,27-4.7,43.3c0,0,1.5,23.7,24.2,19.8c14.7-2.6,21.6-15.5,26-22"/>
<path class="st3" d="M266.1,74.8c0,0,3.1,12.9,3.5,22c0.3,9.1,4,35,2.8,43c0,0,5.6-25.8,14.4-41c8.8-15.2,15.4-24.6,21.3-24
	c6,0.6,10.4,11,10.4,20.1s-0.6,42.6-0.9,47.3c0,0,3.1,4.1,16.3-13.1"/>
<path class="st3" d="M389.2,91.5c0,0-0.4-17-15.3-16.6s-25.2,26.3-26.8,35.6c-1.6,9.3-3.8,30.3,3.5,33.8c7.2,3.5,17.6,1.3,27.6-21.7
	c10-22.9,5.3-9.7,11-27.9s12.2-72.8,12.2-72.5s-7.2,51.2-6.6,65s3.3,51.2,6.6,58.4"/>
<path class="st3" d="M419.3,74.8c0,0,3.2,9.1,1.6,18.2s-4.3,32.9,1.2,34.8c8.8,3.1,13.6-13.5,24.2-27.5
	c10.9-14.4,17.3-25.6,17.3-25.6s5.6,71.6,5.6,77.5c0,6-3.8,24.2-16.3,31.7s-33.2,14.4-47.5,1.3"/>
</svg>
